<svg width="390" height="120" xmlns="http://www.w3.org/2000/svg">
 <g>
   <path stroke="#fff" stroke-width="2" d="m49.05088,87.5084c7.29685,4.46166 15.57156,6.69562 23.84779,6.69562c11.71322,0 23.42643,-4.46849 32.36341,-13.40527c17.87376,-17.87376 17.87376,-46.85287 0,-64.72662c-8.93697,-8.93697 -20.65019,-13.40546 -32.36341,-13.40546c-11.71322,0 -23.42643,4.46849 -32.36341,13.40527c-15.25142,15.25142 -17.48595,38.58725 -6.70984,56.21119l-22.23724,22.23743l15.22527,15.22527l22.23743,-22.23743zm-7.65756,-51.87084c1.70684,-4.20919 4.21962,-7.99077 7.4682,-11.23936s7.03017,-5.76136 11.23936,-7.4682c4.07158,-1.65111 8.37744,-2.48833 12.79778,-2.48833s8.7262,0.83721 12.79778,2.48833c4.20919,1.70684 7.99058,4.21962 11.23936,7.4682c3.24859,3.24859 5.76136,7.03017 7.4682,11.23936c1.65111,4.07158 2.48833,8.37744 2.48833,12.79778s-0.83721,8.7262 -2.48833,12.79778c-1.70684,4.20919 -4.21962,7.99077 -7.4682,11.23936c-3.24859,3.24859 -7.03017,5.76136 -11.23936,7.4682c-4.07158,1.65111 -8.37744,2.48833 -12.79778,2.48833s-8.7262,-0.83721 -12.79778,-2.48833c-0.81598,-0.33094 -1.61529,-0.69297 -2.39829,-1.08381c-3.25636,-1.62571 -6.22195,-3.76547 -8.84087,-6.38439c-2.61892,-2.61892 -4.75868,-5.58452 -6.38439,-8.84106c-0.39084,-0.78319 -0.75287,-1.58231 -1.08381,-2.39829c-1.65111,-4.07158 -2.48833,-8.37744 -2.48833,-12.79778s0.83702,-8.7262 2.48814,-12.79778z"/>
   <path stroke="#fff" stroke-width="2" d="m12.38768,117.22957c1.91704,1.91704 5.02518,1.91704 6.94203,0l3.36629,-3.36629l-15.22527,-15.22546l-3.36629,3.36629c-1.91704,1.91704 -1.91704,5.02518 0,6.94203l8.28324,8.28343z"/>
   <text stroke="#fff" stroke-width="2" font-family="Noto Sans JP" font-size="50" y="69.78662"  x="129.16346" fill="#000">File Search</text>
   <text stroke="#fff" stroke-width="0" font-family="Noto Sans JP" font-size="50" y="69.78662"  x="129.16346" fill="#000">File Search</text>
   <text stroke="#fff" stroke-width="2" font-family="Noto Sans JP" font-size="50" y="111.78662" x="195.16346" fill="#000">Tool</text>
   <text stroke="#fff" stroke-width="0" font-family="Noto Sans JP" font-size="50" y="111.78662" x="195.16346" fill="#000">Tool</text>
   <text stroke="#fff" stroke-width="2" font-family="Noto Sans JP" font-size="50" y="65.89516"  x="63.25734"  fill="#000">f</text>
   <text stroke="#fff" stroke-width="0" font-family="Noto Sans JP" font-size="50" y="65.89516"  x="63.25734"  fill="#000">f</text>
 </g>
</svg>
